#N canvas 564 66 305 188 12;
#N canvas 677 252 450 300 sub 0;
#X obj 0 0 r~ phas;
#X obj 0 20 expr~ (($v1%($v1>>3&$v1>>8)&$v1)%256/2)+(($v1%($v1>>14|$v1>>1)&$v1)%256/2);
#X obj 0 99 s~ out;
#X connect 0 0 1 0;
#X connect 1 0 2 0;
#X restore 13 61 pd sub;
#N canvas 424 43 744 300 main-phas 0;
#X obj 4 266 s~ phas;
#X obj 6 173 expr $f1/128.0;
#X obj 4 238 expr~ $v1*(1<<20);
#X obj 11 6 loadbang;
#X msg 86 0 \; pd dsp 1;
#X obj 5 211 phasor~;
#X obj 5 150 f \$1;
#X obj 5 70 r p1;
#X obj 5 95 list trim p1;
#X obj 5 122 t b f;
#X msg 66 138 1;
#X connect 1 0 5 0;
#X connect 2 0 0 0;
#X connect 3 0 4 0;
#X connect 3 0 10 0;
#X connect 5 0 2 0;
#X connect 6 0 1 0;
#X connect 7 0 8 0;
#X connect 8 0 9 0;
#X connect 9 0 6 0;
#X connect 9 1 6 1;
#X connect 10 0 6 1;
#X restore 13 19 pd main-phas;
#N canvas 0 98 1255 453 main-reciver 0;
#X obj 15 105 netreceive 6000;
#X msg 15 183 \; pd-sub clear \, obj 0 0 r~ phas \, obj 0 20 expr~ \$1 \, obj 0 99 s~ out \, connect 0 0 1 0 \, connect 1 0 2 0 \;, f 20;
#X obj 155 130 route ex1;
#X obj 15 155 symbol;
#X obj 475 22 netreceive 6004;
#X obj 475 73 s pn1;
#X obj 528 73 s vl;
#X obj 293 31 loadbang;
#X obj 582 73 s vd_1;
#X obj 635 73 s vel;
#X obj 689 73 s p1;
#X obj 742 73 s sf;
#X obj 796 73 s sl;
#X obj 851 79 s vd_r;
#X obj 475 47 route pn1 vl vd_1 vd_vel p1 vd_sfill vd_sline vd_r, f 61;
#X connect 0 0 3 0;
#X connect 3 0 1 0;
#X connect 4 0 14 0;
#X connect 7 0 1 0;
#X connect 14 0 5 0;
#X connect 14 1 6 0;
#X connect 14 2 8 0;
#X connect 14 3 9 0;
#X connect 14 4 10 0;
#X connect 14 5 11 0;
#X connect 14 6 12 0;
#X connect 14 7 13 0;
#X restore 13 40 pd main-reciver;
#N canvas 619 162 616 300 main-out 0;
#X obj 7 213 *~;
#X obj 308 69 r vl;
#X obj 308 94 list trim vl;
#X obj 279 145 line;
#X obj 199 207 *~;
#X obj 60 248 dac~;
#X obj 3 277 throw~ L;
#X obj 239 241 throw~ R;
#X floatatom 351 138 5 0 0 0 - - - 0;
#X obj 351 187 dbtorms;
#X floatatom 351 212 5 0 0 0 - - - 0;
#X obj 351 162 + 100;
#X obj 247 33 loadbang;
#X msg 258 81 -100;
#X obj 14 69 r~ out;
#X obj 14 94 expr~ ($v1&255)/128-1;
#X obj 14 119 clip~ -1 1;
#X connect 0 0 5 0;
#X connect 1 0 2 0;
#X connect 2 0 3 0;
#X connect 3 0 8 0;
#X connect 4 0 5 1;
#X connect 8 0 11 0;
#X connect 9 0 10 0;
#X connect 10 0 4 1;
#X connect 10 0 0 1;
#X connect 11 0 9 0;
#X connect 12 0 13 0;
#X connect 13 0 3 0;
#X connect 14 0 15 0;
#X connect 15 0 16 0;
#X connect 16 0 0 0;
#X connect 16 0 4 0;
#X connect 16 0 6 0;
#X connect 16 0 7 0;
#X restore 13 83 pd main-out;
#N canvas 411 175 605 300 viz 0;
#N canvas 0 22 454 304 gemwin 0;
#X obj 132 136 gemwin;
#X obj 67 89 outlet;
#X obj 67 10 inlet;
#X obj 67 41 route create;
#X msg 67 70 set destroy;
#X msg 182 68 set create;
#X msg 132 112 create \, 1;
#X msg 238 112 destroy;
#N canvas 87 154 247 179 Gem.init 0;
#X obj 59 46 loadbang;
#X msg 118 81 reset;
#X obj 118 113 outlet;
#X obj 59 65 t b b;
#X connect 0 0 3 0;
#X connect 1 0 2 0;
#X connect 3 1 1 0;
#X restore 289 80 pd Gem.init;
#X connect 2 0 3 0;
#X connect 3 0 4 0;
#X connect 3 0 6 0;
#X connect 3 1 5 0;
#X connect 3 1 7 0;
#X connect 4 0 1 0;
#X connect 5 0 1 0;
#X connect 6 0 0 0;
#X connect 7 0 0 0;
#X connect 8 0 0 0;
#X restore -81 103 pd gemwin;
#X msg -81 79 create;
#X obj 182 53 part_head;
#X obj 182 197 part_render;
#X obj 182 28 gemhead;
#X obj 330 49 catch~ L;
#X obj 330 74 snapshot~;
#X obj 298 15 metro 100;
#X obj 256 15 tgl 20 0 empty empty empty 0 -10 0 12 #fcfcfc #000000 #000000 0 1;
#X floatatom 326 165 5 0 0 0 - - - 0;
#X obj 330 99 * 4;
#X obj 182 222 circle;
#X obj 182 247 pix_image;
#X obj 182 272 pix_texture;
#X obj 182 296 cube;
#X obj 182 129 part_killold 8;
#X obj -81 52 tgl 20 0 empty empty empty 0 -10 0 12 #fcfcfc #000000 #000000 0 1;
#X obj 20 17 r vd_1;
#X obj 181 327 pix_image;
#X obj 181 352 pix_texture;
#X obj 184 379 triangle;
#X obj 182 106 part_source 10;
#X obj 346 134 abs;
#X obj 182 151 part_velocity sphere;
#X obj 540 85 r vel;
#X obj 540 110 list trim vel;
#X msg 93 166 draw line;
#X msg 63 262 draw fill;
#X obj 21 162 r sl;
#X obj 19 195 r sf;
#X obj 182 174 part_color;
#X floatatom 522 190 5 0 0 0 - - - 0;
#X obj 522 165 * 0.52;
#X floatatom 577 199 5 0 0 0 - - - 0;
#X obj 482 255 pack f f f;
#X obj 508 144 abs;
#X obj 396 6 tgl 20 0 empty empty empty 0 -10 0 12 #fcfcfc #000000 #000000 0 1;
#X obj 427 70 catch~ R;
#X obj 427 95 snapshot~;
#X floatatom 471 198 5 0 0 0 - - - 0;
#X obj 427 120 * 2;
#X obj 471 173 * 0.44;
#X obj 577 174 * 0.53;
#X obj 437 35 metro 300;
#X obj 182 80 rotateXYZ;
#X obj 76 15 r vd_r;
#X obj 76 40 list trim vd_r;
#X obj 3 62 unpack f f f f f f, f 23;
#X obj -2 86 pack f f;
#X obj -2 111 line;
#X obj 65 88 pack f f;
#X obj 65 113 line;
#X obj 114 112 pack f f;
#X obj 114 137 line;
#X connect 0 0 1 0;
#X connect 1 0 0 0;
#X connect 2 0 44 0;
#X connect 3 0 11 0;
#X connect 4 0 2 0;
#X connect 5 0 6 0;
#X connect 6 0 10 0;
#X connect 7 0 6 0;
#X connect 8 0 7 0;
#X connect 9 0 11 1;
#X connect 9 0 14 1;
#X connect 9 0 20 1;
#X connect 10 0 22 0;
#X connect 11 0 12 0;
#X connect 12 0 13 0;
#X connect 13 0 14 0;
#X connect 14 0 18 0;
#X connect 15 0 23 0;
#X connect 16 0 1 0;
#X connect 17 0 16 0;
#X connect 17 0 8 0;
#X connect 17 0 26 0;
#X connect 17 0 36 0;
#X connect 18 0 19 0;
#X connect 19 0 20 0;
#X connect 21 0 15 0;
#X connect 22 0 9 0;
#X connect 23 0 30 0;
#X connect 24 0 25 0;
#X connect 25 0 23 2;
#X connect 26 0 11 0;
#X connect 26 0 14 0;
#X connect 26 0 20 0;
#X connect 27 0 11 0;
#X connect 27 0 14 0;
#X connect 27 0 20 0;
#X connect 28 0 26 0;
#X connect 29 0 27 0;
#X connect 30 0 3 0;
#X connect 31 0 34 1;
#X connect 31 0 11 1;
#X connect 32 0 31 0;
#X connect 33 0 34 2;
#X connect 34 0 30 1;
#X connect 35 0 32 0;
#X connect 35 0 41 0;
#X connect 35 0 42 0;
#X connect 36 0 43 0;
#X connect 37 0 38 0;
#X connect 38 0 40 0;
#X connect 39 0 34 0;
#X connect 39 0 14 1;
#X connect 40 0 35 0;
#X connect 41 0 39 0;
#X connect 42 0 33 0;
#X connect 43 0 38 0;
#X connect 44 0 21 0;
#X connect 45 0 46 0;
#X connect 46 0 47 0;
#X connect 47 0 48 0;
#X connect 47 1 48 1;
#X connect 47 2 50 0;
#X connect 47 3 50 1;
#X connect 47 4 52 0;
#X connect 47 5 52 1;
#X connect 48 0 49 0;
#X connect 49 0 44 1;
#X connect 50 0 51 0;
#X connect 51 0 44 2;
#X connect 52 0 53 0;
#X connect 53 0 44 3;
#X restore 13 106 pd viz;
