#N canvas 810 35 257 202 12;
#X declare -lib Gem;
#N canvas 677 252 450 300 sub 0;
#X obj 0 0 r~ phas;
#X obj 0 20 expr~ 0;
#X obj 0 99 s~ out;
#X connect 0 0 1 0;
#X connect 1 0 2 0;
#X restore 13 61 pd sub;
#N canvas 424 43 744 300 main-phas 0;
#X obj 4 266 s~ phas;
#X obj 4 238 expr~ $v1*(1<<20);
#X obj 11 6 loadbang;
#X msg 86 0 \; pd dsp 1;
#X obj 5 211 phasor~;
#X obj 5 150 f \$1;
#X obj 5 70 r p1;
#X obj 5 95 list trim p1;
#X obj 5 122 t b f;
#X msg 66 138 1;
#X obj 5 181 expr $f1/128.0;
#X connect 1 0 0 0;
#X connect 2 0 3 0;
#X connect 2 0 9 0;
#X connect 4 0 1 0;
#X connect 5 0 10 0;
#X connect 6 0 7 0;
#X connect 7 0 8 0;
#X connect 8 0 5 0;
#X connect 8 1 5 1;
#X connect 9 0 5 1;
#X connect 10 0 4 0;
#X restore 13 19 pd main-phas;
#N canvas 0 98 1255 453 main-reciver 0;
#X obj 15 105 netreceive 6000;
#X msg 15 183 \; pd-sub clear \, obj 0 0 r~ phas \, obj 0 20 expr~ \$1 \, obj 0 99 s~ out \, connect 0 0 1 0 \, connect 1 0 2 0 \;, f 20;
#X obj 15 155 symbol;
#X obj 475 22 netreceive 6004;
#X obj 475 73 s pn1;
#X obj 528 73 s vl;
#X obj 293 31 loadbang;
#X obj 581 73 s vd_1;
#X obj 687 73 s p1;
#X obj 1136 26 netreceive 6005;
#X obj 1136 51 print;
#X obj 376 109 print;
#X obj 634 73 s line;
#X obj 740 73 s quad;
#X obj 793 73 s white;
#X obj 846 73 s green;
#X obj 907 86 s red;
#X obj 958 90 s blue;
#X obj 475 47 route pn1 vl vd_1 vd_line p1 vd_quad vd_white vd_green vd_red vd_blue vd_rcolor, f 85;
#X obj 1040 81 s rcolor;
#X connect 0 0 2 0;
#X connect 2 0 1 0;
#X connect 3 0 11 0;
#X connect 3 0 18 0;
#X connect 6 0 1 0;
#X connect 9 0 10 0;
#X connect 18 0 4 0;
#X connect 18 1 5 0;
#X connect 18 2 7 0;
#X connect 18 3 12 0;
#X connect 18 4 8 0;
#X connect 18 5 13 0;
#X connect 18 6 14 0;
#X connect 18 7 15 0;
#X connect 18 8 16 0;
#X connect 18 9 17 0;
#X connect 18 10 19 0;
#X restore 13 40 pd main-reciver;
#N canvas 619 162 616 300 main-out 0;
#X obj 26 158 *~;
#X obj 308 69 r vl;
#X obj 308 94 list trim vl;
#X obj 279 145 line;
#X obj 197 168 *~;
#X obj 108 269 dac~;
#X obj 3 277 throw~ L;
#X obj 239 241 throw~ R;
#X floatatom 351 138 5 0 0 0 - - - 0;
#X obj 351 187 dbtorms;
#X floatatom 351 212 5 0 0 0 - - - 0;
#X obj 351 162 + 100;
#X obj 247 33 loadbang;
#X msg 258 81 -100;
#X obj 15 22 r~ out;
#X obj 14 119 clip~ -1 1;
#X obj 198 220 hip~ 50;
#X obj 26 214 hip~ 50;
#X obj 26 189 lop~ 10000;
#X obj 198 195 lop~ 10000;
#X obj 490 70 throw~ recL;
#X obj 489 129 throw~ recR;
#X obj 84 44 s~ express;
#X obj 11 71 expr~ ($v1&255)/128-1;
#X connect 0 0 18 0;
#X connect 1 0 2 0;
#X connect 2 0 3 0;
#X connect 3 0 8 0;
#X connect 4 0 19 0;
#X connect 8 0 11 0;
#X connect 9 0 10 0;
#X connect 10 0 4 1;
#X connect 10 0 0 1;
#X connect 11 0 9 0;
#X connect 12 0 13 0;
#X connect 13 0 3 0;
#X connect 14 0 23 0;
#X connect 15 0 0 0;
#X connect 15 0 4 0;
#X connect 15 0 6 0;
#X connect 15 0 7 0;
#X connect 15 0 22 0;
#X connect 16 0 21 0;
#X connect 17 0 5 0;
#X connect 17 0 5 1;
#X connect 17 0 20 0;
#X connect 18 0 17 0;
#X connect 19 0 16 0;
#X connect 23 0 15 0;
#X restore 13 83 pd main-out;
#N canvas 265 175 901 459 viz 0;
#N canvas 0 22 454 304 gemwin 0;
#X obj 132 136 gemwin;
#X obj 67 89 outlet;
#X obj 67 10 inlet;
#X obj 67 41 route create;
#X msg 67 70 set destroy;
#X msg 182 68 set create;
#X msg 132 112 create \, 1;
#X msg 238 112 destroy;
#N canvas 87 154 247 179 Gem.init 0;
#X obj 59 46 loadbang;
#X msg 118 81 reset;
#X obj 118 113 outlet;
#X obj 59 65 t b b;
#X connect 0 0 3 0;
#X connect 1 0 2 0;
#X connect 3 1 1 0;
#X restore 289 80 pd Gem.init;
#X connect 2 0 3 0;
#X connect 3 0 4 0;
#X connect 3 0 6 0;
#X connect 3 1 5 0;
#X connect 3 1 7 0;
#X connect 4 0 1 0;
#X connect 5 0 1 0;
#X connect 6 0 0 0;
#X connect 7 0 0 0;
#X connect 8 0 0 0;
#X restore -81 103 pd gemwin;
#X msg -81 79 destroy;
#X obj 130 -3 gemhead;
#X obj -81 52 tgl 20 0 empty empty empty 0 -10 0 12 #fcfcfc #000000 #000000 0 1;
#X obj -71 15 r vd_1;
#X obj 277 275 r~ express;
#X obj 50 208 color 0 1 0;
#X obj 258 308 sin~;
#X obj 301 310 cos~;
#X obj 253 341 *~ 4;
#X obj 303 341 *~ 4;
#X msg 301 189 draw linestrip;
#X msg 148 107 1 1 1;
#X msg 204 107 0 1 0;
#X msg 264 107 1 0 0;
#X msg 330 107 0 0 1;
#X obj 302 164 r line;
#X obj 534 153 r quad;
#X obj 150 71 r white;
#X obj 225 74 r green;
#X obj 289 75 r red;
#X obj 344 73 r blue;
#X obj 454 99 sel 0 1 2 3;
#X obj 458 74 random 4;
#X obj 459 14 tgl 20 0 empty empty empty 0 -10 0 12 #fcfcfc #000000 #000000 0 1;
#X obj 458 49 metro 1000;
#X obj 562 58 random 1000;
#X obj 342 4 r rcolor;
#X msg 40 360 draw line;
#X obj 133 362 scopeXYZ~ 512;
#X msg 522 193 draw fill;
#X obj 98 277 rotateXYZ;
#X obj 344 375 snapshot~;
#X obj 344 400 * 359;
#X obj 454 328 metro 100;
#X obj 445 292 tgl 20 0 empty empty empty 0 -10 0 12 #fcfcfc #000000 #000000 0 1;
#X obj 724 0 declare -lib Gem;
#X connect 0 0 1 0;
#X connect 1 0 0 0;
#X connect 2 0 6 0;
#X connect 3 0 1 0;
#X connect 4 0 3 0;
#X connect 5 0 7 0;
#X connect 5 0 8 0;
#X connect 5 0 32 0;
#X connect 6 0 31 0;
#X connect 7 0 9 0;
#X connect 8 0 10 0;
#X connect 9 0 29 1;
#X connect 10 0 29 2;
#X connect 11 0 29 0;
#X connect 12 0 6 1;
#X connect 13 0 6 1;
#X connect 14 0 6 1;
#X connect 15 0 6 1;
#X connect 16 0 11 0;
#X connect 17 0 30 0;
#X connect 18 0 12 0;
#X connect 19 0 13 0;
#X connect 20 0 14 0;
#X connect 21 0 15 0;
#X connect 22 0 12 0;
#X connect 22 1 13 0;
#X connect 22 2 14 0;
#X connect 22 3 15 0;
#X connect 23 0 22 0;
#X connect 24 0 25 0;
#X connect 24 0 35 0;
#X connect 25 0 23 0;
#X connect 25 0 26 0;
#X connect 26 0 25 1;
#X connect 27 0 24 0;
#X connect 30 0 29 0;
#X connect 31 0 29 0;
#X connect 32 0 33 0;
#X connect 33 0 31 3;
#X connect 34 0 32 0;
#X connect 35 0 34 0;
#X restore 13 106 pd viz;
#N canvas 670 144 450 300 rec 0;
#X obj 359 154 catch~ recL;
#X obj 444 166 catch~ recR;
#X obj 349 187 writesf~ 2;
#X obj 104 108 bng 20 250 50 0 empty empty empty 0 -10 0 12 #fcfcfc #000000 #000000;
#X msg 297 144 start;
#X obj 167 108 bng 20 250 50 0 empty empty empty 0 -10 0 12 #fcfcfc #000000 #000000;
#X msg 473 76 stop;
#X symbolatom 102 138 12 0 0 0 - - - 0;
#X obj 140 258 print;
#X msg 140 233 open -wave \$1;
#X obj 134 108 bng 20 250 50 0 empty empty empty 0 -10 0 12 #fcfcfc #000000 #000000;
#X connect 0 0 2 0;
#X connect 1 0 2 1;
#X connect 3 0 7 0;
#X connect 4 0 2 0;
#X connect 5 0 6 0;
#X connect 6 0 2 0;
#X connect 7 0 9 0;
#X connect 9 0 2 0;
#X connect 9 0 8 0;
#X connect 10 0 4 0;
#X coords 0 -1 1 1 90 85 2 100 100;
#X restore 143 26 pd rec;
